<svg xmlns="http://www.w3.org/2000/svg" width="1280" height="720" viewBox="0 0 1280 720" role="img" aria-label="ARVION-OS Preview">
  <defs>
    <linearGradient id="bg" x1="0" y1="0" x2="1" y2="1">
      <stop offset="0%" stop-color="#05070d" />
      <stop offset="100%" stop-color="#0e1424" />
    </linearGradient>
    <linearGradient id="glow" x1="0" y1="0" x2="1" y2="0">
      <stop offset="0%" stop-color="#00e5ff" />
      <stop offset="100%" stop-color="#62ff9b" />
    </linearGradient>
    <filter id="soft" x="-20%" y="-20%" width="140%" height="140%">
      <feGaussianBlur stdDeviation="6" />
    </filter>
  </defs>

  <rect width="1280" height="720" fill="url(#bg)" />
  <rect x="36" y="36" width="1208" height="648" rx="20" fill="#0b1020" stroke="#1f2a44" stroke-width="2" />

  <rect x="64" y="76" width="1152" height="32" rx="10" fill="#131d35" />
  <circle cx="86" cy="92" r="6" fill="#ff5f57" />
  <circle cx="108" cy="92" r="6" fill="#ffbd2e" />
  <circle cx="130" cy="92" r="6" fill="#28c840" />
  <rect x="164" y="82" width="390" height="20" rx="10" fill="#1a2744" />

  <rect x="64" y="132" width="1152" height="520" rx="14" fill="#0a1224" />
  <rect x="96" y="168" width="280" height="16" rx="8" fill="#1d2b4b" />
  <rect x="96" y="196" width="520" height="12" rx="6" fill="#16233f" />
  <rect x="96" y="218" width="460" height="12" rx="6" fill="#16233f" />
  <rect x="96" y="240" width="610" height="12" rx="6" fill="#16233f" />

  <circle cx="640" cy="388" r="88" fill="#00e5ff" opacity="0.22" filter="url(#soft)" />
  <circle cx="640" cy="388" r="74" fill="#0f1f35" stroke="url(#glow)" stroke-width="4" />
  <polygon points="620,348 620,428 692,388" fill="#d9f7ff" />

  <text x="640" y="545" text-anchor="middle" fill="#dce7ff" font-family="Segoe UI, Arial, sans-serif" font-size="46" font-weight="700">
    ARVION-OS PREVIEW
  </text>
  <text x="640" y="585" text-anchor="middle" fill="#88a2d6" font-family="Segoe UI, Arial, sans-serif" font-size="24">
    Click to play demo video
  </text>
</svg>
